# xmcd
#
# Track frame offsets:
#	150
#	37964
#	79813
#	118317
#	161934
#	205249
#	247941
#	286103
#
# Disc length: 4423 seconds
# Revision: 0
# Processed by: cddbd v1.5.2PL0 Copyright (c) Steve Scherf et al.
# Submitted via: dBpowerAMP V12.0
#
DISCID=6a114508
DTITLE=Carimi - Carimi Live Buzz 2.0
DYEAR=2011
DGENRE=World
TTITLE0=Buzz
TTITLE1=Mwen Dezole
TTITLE2=We The Best
TTITLE3=Mwen Pare
TTITLE4=Are You Ready
TTITLE5=Fem Kadow
TTITLE6=Bang Bang
TTITLE7=Fanm sa Move
EXTD=
EXTT0=
EXTT1=
EXTT2=
EXTT3=
EXTT4=
EXTT5=
EXTT6=
EXTT7=
PLAYORDER=
